<?xml version="1.0" encoding="UTF-8" standalone="no"?>
<!-- Generator: Adobe Illustrator 18.0.0, SVG Export Plug-In . SVG Version: 6.00 Build 0)  -->

<svg
   xmlns:dc="http://purl.org/dc/elements/1.1/"
   xmlns:cc="http://creativecommons.org/ns#"
   xmlns:rdf="http://www.w3.org/1999/02/22-rdf-syntax-ns#"
   xmlns:svg="http://www.w3.org/2000/svg"
   xmlns="http://www.w3.org/2000/svg"
   xmlns:sodipodi="http://sodipodi.sourceforge.net/DTD/sodipodi-0.dtd"
   xmlns:inkscape="http://www.inkscape.org/namespaces/inkscape"
   version="1.1"
   id="Capa_1"
   x="0px"
   y="0px"
   viewBox="0 0 59 59"
   style="enable-background:new 0 0 59 59;"
   xml:space="preserve"
   sodipodi:docname="robot-sleep.svg"
   inkscape:version="0.92.2 (5c3e80d, 2017-08-06)"><metadata
     id="metadata3917"><rdf:RDF><cc:Work
         rdf:about=""><dc:format>image/svg+xml</dc:format><dc:type
           rdf:resource="http://purl.org/dc/dcmitype/StillImage" /><dc:title></dc:title></cc:Work></rdf:RDF></metadata><defs
     id="defs3915" /><sodipodi:namedview
     pagecolor="#ffffff"
     bordercolor="#666666"
     borderopacity="1"
     objecttolerance="10"
     gridtolerance="10"
     guidetolerance="10"
     inkscape:pageopacity="0"
     inkscape:pageshadow="2"
     inkscape:window-width="1853"
     inkscape:window-height="1025"
     id="namedview3913"
     showgrid="false"
     inkscape:zoom="7.1525424"
     inkscape:cx="69.322891"
     inkscape:cy="28.269254"
     inkscape:window-x="67"
     inkscape:window-y="27"
     inkscape:window-maximized="1"
     inkscape:current-layer="Capa_1" /><path
     inkscape:connector-curvature="0"
     id="path3828"
     d="M 18,10 H 13 C 12.448,10 12,9.552 12,9 12,8.448 12.448,8 13,8 h 5 c 0.552,0 1,0.448 1,1 0,0.552 -0.448,1 -1,1 z"
     style="fill:#bdc3c7" /><path
     inkscape:connector-curvature="0"
     id="path3830"
     d="M 46,10 H 41 C 40.448,10 40,9.552 40,9 40,8.448 40.448,8 41,8 h 5 c 0.552,0 1,0.448 1,1 0,0.552 -0.448,1 -1,1 z"
     style="fill:#bdc3c7" /><path
     inkscape:connector-curvature="0"
     id="path3832"
     d="M 40.47,39 H 18.53 C 17.685,39 17,38.315 17,37.47 V 21.53 C 17,20.685 17.685,20 18.53,20 H 40.47 C 41.315,20 42,20.685 42,21.53 V 37.47 C 42,38.315 41.315,39 40.47,39 Z"
     style="fill:#bdc3c7" /><rect
     id="rect3834"
     height="5"
     width="11"
     style="fill:#95a5a5"
     y="15"
     x="24" /><path
     inkscape:connector-curvature="0"
     id="path3836"
     d="M 38,15 H 21 V 3.619 C 21,2.173 22.173,1 23.619,1 H 35.38 C 36.827,1 38,2.173 38,3.619 Z"
     style="fill:#d1d4d1" /><polygon
     id="polygon3842"
     points="18,6 21,5 21,13 18,12 "
     style="fill:#95a5a5" /><polygon
     id="polygon3844"
     points="41,6 38,5 38,13 41,12 "
     style="fill:#95a5a5" /><path
     inkscape:connector-curvature="0"
     id="path3846"
     d="M 4,41 H 8 C 8,34.383 10.383,29 17,29 V 25 C 8.178,25 4,32.178 4,41 Z"
     style="fill:#ecf0f1" /><circle
     id="circle3848"
     r="4"
     cy="29"
     cx="24"
     style="fill:#ff0000" /><path
     inkscape:connector-curvature="0"
     id="path3850"
     d="m 39,34 h -7 c -0.552,0 -1,-0.448 -1,-1 0,-0.552 0.448,-1 1,-1 h 7 c 0.552,0 1,0.448 1,1 0,0.552 -0.448,1 -1,1 z"
     style="fill:#95a5a5" /><path
     inkscape:connector-curvature="0"
     id="path3852"
     d="m 39,30 h -6 c -0.552,0 -1,-0.448 -1,-1 0,-0.552 0.448,-1 1,-1 h 6 c 0.552,0 1,0.448 1,1 0,0.552 -0.448,1 -1,1 z"
     style="fill:#ecf0f1" /><path
     inkscape:connector-curvature="0"
     id="path3854"
     d="m 39,26 h -6 c -0.552,0 -1,-0.448 -1,-1 0,-0.552 0.448,-1 1,-1 h 6 c 0.552,0 1,0.448 1,1 0,0.552 -0.448,1 -1,1 z"
     style="fill:#ffffff" /><path
     inkscape:connector-curvature="0"
     id="path3856"
     d="m 3.001,51.002 c -0.208,0 -0.419,-0.065 -0.599,-0.2 C 0.875,49.657 0,47.906 0,46 c 0,-3.309 2.691,-6 6,-6 3.309,0 6,2.691 6,6 0,1.905 -0.875,3.654 -2.399,4.8 -0.442,0.331 -1.068,0.242 -1.4,-0.199 C 7.869,50.16 7.959,49.533 8.4,49.201 9.417,48.437 10,47.27 10,46 10,43.794 8.206,42 6,42 c -2.206,0 -4,1.794 -4,4 0,1.271 0.584,2.438 1.603,3.202 0.442,0.332 0.531,0.958 0.2,1.4 -0.197,0.262 -0.497,0.4 -0.802,0.4 z"
     style="fill:#95a5a5" /><path
     inkscape:connector-curvature="0"
     id="path3858"
     d="M 55,41 H 51 C 51,34.383 48.617,29 42,29 v -4 c 8.822,0 13,7.178 13,16 z"
     style="fill:#ecf0f1" /><path
     inkscape:connector-curvature="0"
     id="path3860"
     d="m 55.999,51.002 c -0.304,0 -0.604,-0.138 -0.801,-0.4 -0.332,-0.442 -0.242,-1.068 0.2,-1.4 C 56.416,48.438 57,47.271 57,46 c 0,-2.206 -1.794,-4 -4,-4 -2.206,0 -4,1.794 -4,4 0,1.27 0.583,2.437 1.601,3.2 0.441,0.332 0.531,0.959 0.199,1.4 -0.333,0.441 -0.958,0.53 -1.4,0.199 C 47.875,49.654 47,47.905 47,46 c 0,-3.309 2.691,-6 6,-6 3.309,0 6,2.691 6,6 0,1.906 -0.875,3.657 -2.402,4.802 -0.18,0.135 -0.391,0.2 -0.599,0.2 z"
     style="fill:#95a5a5" /><path
     inkscape:connector-curvature="0"
     id="path3862"
     d="M 26,58 H 16.853 C 15.83,58 15,57.17 15,56.147 V 54.853 C 15,53.83 15.83,53 16.853,53 H 26 Z"
     style="fill:#95a5a5" /><path
     inkscape:connector-curvature="0"
     id="path3864"
     d="M 42.147,58 H 33 v -5 h 9.147 C 43.17,53 44,53.83 44,54.853 v 1.294 C 44,57.17 43.17,58 42.147,58 Z"
     style="fill:#95a5a5" /><path
     inkscape:connector-curvature="0"
     id="path3866"
     d="M 29.5,13 C 26.851,13 25,11.355 25,9 c 0,-0.552 0.448,-1 1,-1 0.552,0 1,0.448 1,1 0,1.475 1.292,2 2.5,2 1.208,0 2.5,-0.525 2.5,-2 0,-0.552 0.448,-1 1,-1 0.552,0 1,0.448 1,1 0,2.355 -1.851,4 -4.5,4 z"
     style="fill:#95a5a5" /><rect
     id="rect3868"
     height="5"
     width="6"
     style="fill:#95a5a5"
     y="43"
     x="16" /><rect
     id="rect3870"
     height="5"
     width="6"
     style="fill:#95a5a5"
     y="43"
     x="37" /><polygon
     id="polygon3872"
     points="40,43 40,39 33,39 33,53 40,53 40,48 37,48 37,43 "
     style="fill:#d1d4d1" /><polygon
     id="polygon3874"
     points="22,43 22,48 19,48 19,53 26,53 26,39 19,39 19,43 "
     style="fill:#d1d4d1" /><circle
     id="circle3876"
     r="3"
     cy="9"
     cx="44.386257"
     style="fill:#ecf0f1" /><circle
     id="circle3878"
     r="3"
     cy="9"
     cx="14.753554"
     style="fill:#ecf0f1" /><g
     id="g3882" /><g
     id="g3884" /><g
     id="g3886" /><g
     id="g3888" /><g
     id="g3890" /><g
     id="g3892" /><g
     id="g3894" /><g
     id="g3896" /><g
     id="g3898" /><g
     id="g3900" /><g
     id="g3902" /><g
     id="g3904" /><g
     id="g3906" /><g
     id="g3908" /><g
     id="g3910" /></svg>